<?xml version="1.0" encoding="utf-8"?>
<!-- Generator: Adobe Illustrator 19.1.0, SVG Export Plug-In . SVG Version: 6.00 Build 0)  -->
<svg version="1.1" id="Layer_1" xmlns="http://www.w3.org/2000/svg" xmlns:xlink="http://www.w3.org/1999/xlink" x="0px" y="0px"
	 viewBox="0 0 80 65" style="enable-background:new 0 0 80 65;" xml:space="preserve">
<style type="text/css">
	.st0{fill:#FFFFFF;}
	.st1{fill:none;stroke:#FFFFFF;}
</style>
<g>
	<path class="st0" d="M23.9,15.6h-5.8l-1.2,2.7h-1.6l5-11h1.5l5,11h-1.6L23.9,15.6z M23.3,14.3L21,9l-2.4,5.4H23.3z"/>
	<path class="st0" d="M37.8,7.4v11h-1.3l-6.6-8.2v8.2h-1.6v-11h1.3l6.6,8.2V7.4H37.8z"/>
	<path class="st0" d="M50.5,7.4v11h-1.3l-6.6-8.2v8.2h-1.6v-11h1.3l6.6,8.2V7.4H50.5z"/>
	<path class="st0" d="M61.7,17v1.4h-8v-11h7.7v1.4h-6.2v3.4h5.5v1.3h-5.5V17H61.7z"/>
	<path class="st0" d="M15.3,37.1h7.8v1h-7.8V37.1z"/>
	<path class="st0" d="M34.6,26.2v11h-1.6v-4.9h-6.3v4.9h-1.6v-11h1.6v4.7h6.3v-4.7H34.6z"/>
	<path class="st0" d="M37,31.6c0-3.2,2.5-5.6,5.8-5.6c3.3,0,5.8,2.4,5.8,5.6c0,3.2-2.5,5.6-5.8,5.6C39.5,37.2,37,34.8,37,31.6z
		 M47.1,31.6c0-2.4-1.8-4.2-4.2-4.2c-2.5,0-4.3,1.8-4.3,4.2s1.8,4.2,4.3,4.2C45.3,35.8,47.1,34.1,47.1,31.6z"/>
	<path class="st0" d="M61.2,37.1l0-8l-4,6.7h-0.7l-4-6.6v7.9h-1.5v-11h1.3l4.6,7.7l4.5-7.7h1.3l0,11H61.2z"/>
	<path class="st0" d="M23.9,53.2h-5.8l-1.2,2.7h-1.6l5-11h1.5l5,11h-1.6L23.9,53.2z M23.3,51.9L21,46.5l-2.4,5.4H23.3z"/>
	<path class="st0" d="M37.8,44.9v11h-1.3l-6.6-8.2v8.2h-1.6v-11h1.3l6.6,8.2v-8.2H37.8z"/>
	<path class="st0" d="M50.5,44.9v11h-1.3l-6.6-8.2v8.2h-1.6v-11h1.3l6.6,8.2v-8.2H50.5z"/>
	<path class="st0" d="M52.2,55.9H60v1h-7.8V55.9z"/>
</g>
<rect x="6" y="1" class="st1" width="67" height="62.4"/>
</svg>
